<svg xmlns="http://www.w3.org/2000/svg" stroke="#000" stroke-linecap="square" stroke-miterlimit="10" color-interpolation="auto" font-family="'Dialog'" font-size="12" viewBox="0 0 1650 900"><defs><clipPath id="a" clipPathUnits="userSpaceOnUse"><path d="M-608.635-450.272h1650v900h-1650v-900Z"/></clipPath><clipPath id="b" clipPathUnits="userSpaceOnUse"><path d="M-488.268-658.753h1650v900h-1650v-900Z"/></clipPath><clipPath id="c" clipPathUnits="userSpaceOnUse"><path d="M-729.001-658.753h1650v900h-1650v-900Z"/></clipPath><clipPath id="d" clipPathUnits="userSpaceOnUse"><path d="M-4.301-797.745h1650v900h-1650v-900Z"/></clipPath><clipPath id="e" clipPathUnits="userSpaceOnUse"><path d="M-901.63-205.639h1650v900h-1650v-900Z"/></clipPath><clipPath id="f" clipPathUnits="userSpaceOnUse"><path d="M-1021.997 2.843h1650v900h-1650v-900Z"/></clipPath><clipPath id="g" clipPathUnits="userSpaceOnUse"><path d="M1066.97 8.04c11.505 0 20.833 9.328 20.833 20.833V70.54c0 11.506-9.328 20.833-20.833 20.833h-19.946c-11.506 0-20.833-9.327-20.833-20.833V28.873c0-11.505 9.327-20.832 20.833-20.832ZM946.602 216.524c11.506 0 20.833 9.327 20.833 20.833v41.665c0 11.506-9.327 20.833-20.832 20.833h-19.946c-11.506 0-20.833-9.327-20.833-20.833v-41.666c0-11.505 9.327-20.832 20.833-20.832ZM646.271 462.007c11.119 0 20.132 9.014 20.132 20.132v40.265c0 11.12-9.013 20.133-20.132 20.133h-10.272c-11.12 0-20.133-9.014-20.133-20.133V482.14c0-11.12 9.014-20.133 20.133-20.133Zm-120.367 208.48c11.12 0 20.133 9.014 20.133 20.133v40.265c0 11.119-9.014 20.133-20.133 20.133h-10.272c-11.119 0-20.132-9.014-20.132-20.133V690.62c0-11.119 9.013-20.132 20.132-20.132Zm240.733 0c11.119 0 20.133 9.014 20.133 20.133v40.265c0 11.119-9.014 20.133-20.133 20.133h-10.272c-11.119 0-20.133-9.014-20.133-20.133V690.62c0-11.119 9.014-20.132 20.133-20.132ZM49.274 808.629c11.506 0 20.833 9.327 20.833 20.833v41.666c0 11.505-9.327 20.833-20.833 20.833H29.33c-11.506 0-20.833-9.328-20.833-20.833V829.46c0-11.506 9.327-20.833 20.833-20.833ZM0 0v900h1650V0Z"/></clipPath></defs><text xml:space="preserve" y="84" stroke="none" clip-path="url(#a)" font-family="'Arial'" font-size="90" text-rendering="geometricPrecision" transform="translate(608.635 450.272)">
H</text><text xml:space="preserve" y="84" stroke="none" clip-path="url(#b)" font-family="'Arial'" font-size="90" text-rendering="geometricPrecision" transform="translate(488.268 658.753)">
H</text><text xml:space="preserve" y="84" stroke="none" clip-path="url(#c)" font-family="'Arial'" font-size="90" text-rendering="geometricPrecision" transform="translate(729.001 658.753)">
H</text><text xml:space="preserve" y="84" stroke="none" clip-path="url(#d)" font-family="'Arial'" font-size="90" text-rendering="geometricPrecision" transform="translate(4.301 797.745)">
O</text><text xml:space="preserve" y="84" stroke="none" clip-path="url(#e)" font-family="'Arial'" font-size="90" text-rendering="geometricPrecision" transform="translate(901.63 205.639)">
O</text><text xml:space="preserve" y="84" stroke="none" clip-path="url(#f)" font-family="'Arial'" font-size="90" text-rendering="geometricPrecision" transform="translate(1021.997 -2.843)">
O</text><path stroke="none" d="m278.531 569.16-120.366 69.495a3.008 3.008 0 1 0 3.008 5.21L281.54 574.37a3.008 3.008 0 1 0-3.009-5.21Z" clip-path="url(#g)" font-family="'Arial'" font-size="90" text-rendering="geometricPrecision"/><path stroke="none" d="m278.531 574.37 120.367 69.495a3.008 3.008 0 1 0 3.008-5.21L281.54 569.159a3.008 3.008 0 1 0-3.009 5.21ZM156.66 641.26v138.991a3.008 3.008 0 1 0 6.018 0v-138.99a3.008 3.008 0 1 0-6.017 0Z" clip-path="url(#g)" font-family="'Arial'" font-size="90" text-rendering="geometricPrecision"/><path stroke="none" d="m158.165 782.857 120.366 69.495a3.008 3.008 0 1 0 3.009-5.21l-120.367-69.496a3.008 3.008 0 1 0-3.008 5.21Z" clip-path="url(#g)" font-family="'Arial'" font-size="90" text-rendering="geometricPrecision"/><path stroke="none" d="M281.137 816.689a3.008 3.008 0 1 0 3.008 5.21l90.086-52.012a3.008 3.008 0 1 0-3.009-5.21Zm-2.606 30.452a3.008 3.008 0 1 0 3.009 5.211l120.366-69.495a3.008 3.008 0 1 0-3.008-5.211Z" clip-path="url(#g)" font-family="'Arial'" font-size="90" text-rendering="geometricPrecision"/><path stroke="none" d="M403.41 780.251v-138.99a3.008 3.008 0 1 0-6.016 0v138.99a3.008 3.008 0 1 0 6.016 0Z" clip-path="url(#g)" font-family="'Arial'" font-size="90" text-rendering="geometricPrecision"/><path stroke="none" d="m519.264 569.16-120.366 69.495a3.008 3.008 0 1 0 3.008 5.21l120.367-69.495a3.008 3.008 0 1 0-3.009-5.21ZM398.898 782.857l120.366 69.495a3.008 3.008 0 1 0 3.009-5.21l-120.367-69.496a3.008 3.008 0 1 0-3.008 5.21Z" clip-path="url(#g)" font-family="'Arial'" font-size="90" text-rendering="geometricPrecision"/><path stroke="none" d="m522.273 852.352 120.366-69.495a3.008 3.008 0 1 0-3.009-5.211L519.264 847.14a3.008 3.008 0 1 0 3.009 5.211Z" clip-path="url(#g)" font-family="'Arial'" font-size="90" text-rendering="geometricPrecision"/><path stroke="none" d="M644.143 780.251v-138.99a3.008 3.008 0 1 0-6.017 0v138.99a3.008 3.008 0 1 0 6.017 0Z" clip-path="url(#g)" font-family="'Arial'" font-size="90" text-rendering="geometricPrecision"/><path stroke="none" d="m519.264 574.37 120.366 69.495a3.008 3.008 0 1 0 3.009-5.21l-120.366-69.496a3.008 3.008 0 1 0-3.009 5.21Z" clip-path="url(#g)" font-family="'Arial'" font-size="90" text-rendering="geometricPrecision"/><path stroke="none" d="m642.639 643.865 120.366-69.495a3.008 3.008 0 1 0-3.008-5.21L639.63 638.654a3.008 3.008 0 1 0 3.009 5.21ZM517.76 432.773v138.991a3.008 3.008 0 1 0 6.017 0v-138.99a3.008 3.008 0 1 0-6.017 0Z" clip-path="url(#g)" font-family="'Arial'" font-size="90" text-rendering="geometricPrecision"/><path stroke="none" d="m639.63 360.672-120.366 69.496a3.008 3.008 0 1 0 3.009 5.21l120.366-69.495a3.008 3.008 0 1 0-3.009-5.21Z" clip-path="url(#g)" font-family="'Arial'" font-size="90" text-rendering="geometricPrecision"/><path stroke="none" d="m639.63 365.883 120.367 69.496a3.008 3.008 0 1 0 3.008-5.211L642.64 360.672a3.008 3.008 0 1 0-3.009 5.211Z" clip-path="url(#g)" font-family="'Arial'" font-size="90" text-rendering="geometricPrecision"/><path stroke="none" d="M764.51 571.764v-138.99a3.008 3.008 0 1 0-6.017 0v138.99a3.008 3.008 0 1 0 6.016 0Z" clip-path="url(#g)" font-family="'Arial'" font-size="90" text-rendering="geometricPrecision"/><path stroke="none" d="m892.752 386.964-132.18 42.948a3.008 3.008 0 1 0 1.859 5.723l132.18-42.949a3.008 3.008 0 1 0-1.859-5.722ZM760.571 574.626l132.195 42.948a3.008 3.008 0 1 0 1.859-5.722l-132.194-42.949a3.008 3.008 0 1 0-1.86 5.723Z" clip-path="url(#g)" font-family="'Arial'" font-size="90" text-rendering="geometricPrecision"/><path stroke="none" d="m891.248 391.593 81.699 112.444a3.008 3.008 0 1 0 4.867-3.536l-81.699-112.444a3.008 3.008 0 1 0-4.867 3.536Z" clip-path="url(#g)" font-family="'Arial'" font-size="90" text-rendering="geometricPrecision"/><path stroke="none" d="m896.13 616.48 81.684-112.443a3.008 3.008 0 1 0-4.867-3.536L891.26 612.945a3.008 3.008 0 1 0 4.868 3.536ZM400.402 641.26h3.008l12.034-138.988H385.36l12.034 138.988ZM761.501 432.773h3.008l12.034-138.988h-30.084l12.034 138.988ZM641.135 641.26h3.008l12.034-86.757h-30.084l12.033 86.757ZM524.961 580.303l-.835-6.017h-6.716l-.834 6.017h8.385Zm2.712 19.555-.834-6.017h-12.141l-.835 6.017h13.81Zm2.713 19.554-.835-6.017h-17.566l-.834 6.017h19.235Zm2.712 19.555-.835-6.017h-22.99l-.834 6.017h24.659Zm2.712 19.554-.834-6.016H506.56l-.835 6.016h30.084ZM765.694 580.303l-.835-6.017h-6.716l-.835 6.017h8.386Zm2.712 19.555-.834-6.017H755.43l-.835 6.017h13.81Zm2.712 19.554-.834-6.017h-17.566l-.834 6.017h19.234Zm2.713 19.555-.835-6.017h-22.99l-.835 6.017h24.66Zm2.712 19.554-.835-6.016h-28.414l-.835 6.016h30.084ZM173.708 790.094a3.008 3.008 0 1 0-3.008-5.21l-82.836 47.824a3.008 3.008 0 1 0 3.008 5.21Zm-12.535-21.712a3.008 3.008 0 1 0-3.008-5.21L75.33 810.996a3.008 3.008 0 1 0 3.008 5.211ZM893.682 389.825l2.86.93 37.009-74.96-14.306-4.648-14.306-4.648-14.119 82.396ZM1055.493 190.75l120.367 69.494a3.008 3.008 0 1 0 3.008-5.21l-120.367-69.494a3.008 3.008 0 1 0-3.008 5.21Z" clip-path="url(#g)" font-family="'Arial'" font-size="90" text-rendering="geometricPrecision"/><path stroke="none" d="m1178.868 260.244 120.368-69.494a3.008 3.008 0 1 0-3.009-5.21l-120.367 69.494a3.008 3.008 0 1 0 3.008 5.21Z" clip-path="url(#g)" font-family="'Arial'" font-size="90" text-rendering="geometricPrecision"/><path stroke="none" d="m1296.227 190.75 120.367 69.494a3.008 3.008 0 1 0 3.009-5.21l-120.367-69.494a3.008 3.008 0 1 0-3.009 5.21ZM1041.454 195.382a3.008 3.008 0 1 0 6.016 0v-91.18a3.008 3.008 0 1 0-6.016 0Zm25.07 0a3.008 3.008 0 1 0 6.016 0v-91.18a3.008 3.008 0 1 0-6.016 0Z" clip-path="url(#g)" font-family="'Arial'" font-size="90" text-rendering="geometricPrecision"/><path stroke="none" d="m980.035 236.053 78.466-45.303a3.008 3.008 0 1 0-3.008-5.21l-78.467 45.302a3.008 3.008 0 1 0 3.009 5.21ZM1432.004 398.808l135.944 28.896a3.008 3.008 0 1 0 1.251-5.886l-135.944-28.895a3.008 3.008 0 1 0-1.25 5.885Z" clip-path="url(#g)" font-family="'Arial'" font-size="90" text-rendering="geometricPrecision"/><path stroke="none" d="m1571.179 426.265 69.494-120.368a3.008 3.008 0 1 0-5.21-3.008l-69.495 120.368a3.008 3.008 0 1 0 5.21 3.008Z" clip-path="url(#g)" font-family="'Arial'" font-size="90" text-rendering="geometricPrecision"/><path stroke="none" d="m1640.304 302.38-92.997-103.283a3.008 3.008 0 1 0-4.47 4.026l92.995 103.283a3.008 3.008 0 1 0 4.472-4.026ZM1415.107 257.954l14.531 138.226a3.008 3.008 0 1 0 5.984-.63l-14.531-138.226a3.008 3.008 0 1 0-5.984.63Z" clip-path="url(#g)" font-family="'Arial'" font-size="90" text-rendering="geometricPrecision"/><path stroke="none" d="m1419.322 260.387 126.973-56.529a3.008 3.008 0 1 0-2.447-5.496l-126.973 56.529a3.008 3.008 0 1 0 2.447 5.496Z" clip-path="url(#g)" font-family="'Arial'" font-size="90" text-rendering="geometricPrecision"/></svg>
