<svg xmlns="http://www.w3.org/2000/svg" stroke="#000" stroke-linecap="square" stroke-miterlimit="10" color-interpolation="auto" font-family="'Dialog'" font-size="12" viewBox="0 0 930 475"><defs><clipPath id="a" clipPathUnits="userSpaceOnUse"><path d="M0 0h930v475H0V0Z"/></clipPath><clipPath id="b" clipPathUnits="userSpaceOnUse"><path d="M-468.131-110.06h930v475h-930v-475Z"/></clipPath><clipPath id="c" clipPathUnits="userSpaceOnUse"><path d="M-380.021-341.909h930v475h-930v-475Z"/></clipPath><clipPath id="d" clipPathUnits="userSpaceOnUse"><path d="M-256.84-341.908h930v475h-930v-475Z"/></clipPath><clipPath id="e" clipPathUnits="userSpaceOnUse"><path d="M-318.431-235.232h930v475h-930v-475Z"/></clipPath><clipPath id="f" clipPathUnits="userSpaceOnUse"><path d="M-8.97-413.024h930v475h-930v-475Z"/></clipPath><clipPath id="g" clipPathUnits="userSpaceOnUse"><path d="M-529.722-3.382h930v475h-930v-475Z"/></clipPath></defs><path stroke="none" d="m150.293 298.705-61.59 35.56a1.247 1.247 0 1 0 1.247 2.16l61.59-35.56a1.247 1.247 0 1 0-1.247-2.16Z" clip-path="url(#a)" text-rendering="geometricPrecision"/><path stroke="none" d="M88.08 335.346v71.12a1.247 1.247 0 1 0 2.494 0v-71.12a1.247 1.247 0 1 0-2.494 0Z" clip-path="url(#a)" text-rendering="geometricPrecision"/><path stroke="none" d="m88.703 407.546 61.59 35.56a1.247 1.247 0 1 0 1.247-2.16l-61.59-35.56a1.247 1.247 0 1 0-1.247 2.16Z" clip-path="url(#a)" text-rendering="geometricPrecision"/><path stroke="none" d="M151.373 425.39a1.247 1.247 0 1 0 1.247 2.16l46.5-26.846a1.247 1.247 0 1 0-1.248-2.16Zm-1.08 15.555a1.247 1.247 0 1 0 1.247 2.16l61.59-35.56a1.247 1.247 0 1 0-1.247-2.16Z" clip-path="url(#a)" text-rendering="geometricPrecision"/><path stroke="none" d="M213.754 406.466v-71.12a1.247 1.247 0 1 0-2.494 0v71.12a1.247 1.247 0 1 0 2.494 0Z" clip-path="url(#a)" text-rendering="geometricPrecision"/><path stroke="none" d="m150.293 300.866 61.59 35.56a1.247 1.247 0 1 0 1.247-2.16l-61.59-35.56a1.247 1.247 0 1 0-1.247 2.16ZM274.721 443.106l61.592-35.557a1.247 1.247 0 1 0-1.247-2.16l-61.592 35.557a1.247 1.247 0 1 0 1.248 2.16Z" clip-path="url(#a)" text-rendering="geometricPrecision"/><path stroke="none" d="M336.936 406.469V335.35a1.247 1.247 0 1 0-2.494 0v71.119a1.247 1.247 0 1 0 2.494 0Z" clip-path="url(#a)" text-rendering="geometricPrecision"/><path stroke="none" d="m336.313 334.27-61.591-35.56a1.247 1.247 0 1 0-1.248 2.16l61.592 35.56a1.247 1.247 0 1 0 1.247-2.16ZM211.883 407.546l61.591 35.56a1.247 1.247 0 1 0 1.248-2.16l-61.592-35.56a1.247 1.247 0 1 0-1.247 2.16Z" clip-path="url(#a)" text-rendering="geometricPrecision"/><path stroke="none" d="m213.13 336.426 61.591-35.556a1.247 1.247 0 1 0-1.247-2.16l-61.59 35.555a1.247 1.247 0 1 0 1.246 2.16ZM274.723 229.75l61.59-35.56a1.247 1.247 0 1 0-1.247-2.16l-61.59 35.56a1.247 1.247 0 1 0 1.247 2.16Z" clip-path="url(#a)" text-rendering="geometricPrecision"/><path stroke="none" d="m335.066 194.19 61.59 35.56a1.247 1.247 0 1 0 1.247-2.16l-61.59-35.56a1.247 1.247 0 1 0-1.247 2.16Z" clip-path="url(#a)" text-rendering="geometricPrecision"/><path stroke="none" d="M396.032 228.67v71.12a1.247 1.247 0 1 0 2.494 0v-71.12a1.247 1.247 0 1 0-2.494 0Z" clip-path="url(#a)" text-rendering="geometricPrecision"/><path stroke="none" d="m336.313 336.43 61.59-35.56a1.247 1.247 0 1 0-1.248-2.16l-61.59 35.56a1.247 1.247 0 1 0 1.248 2.16ZM275.345 299.79l.001-71.12a1.247 1.247 0 1 0-2.494 0l-.001 71.12a1.247 1.247 0 1 0 2.494 0ZM465.922 322.499l41.803-57.536a1.247 1.247 0 1 0-2.017-1.466l-41.804 57.536a1.247 1.247 0 1 0 2.018 1.466Z" clip-path="url(#a)" text-rendering="geometricPrecision"/><path stroke="none" d="m507.726 263.497-41.8-57.534a1.247 1.247 0 1 0-2.017 1.466l41.798 57.534a1.247 1.247 0 1 0 2.019-1.466Z" clip-path="url(#a)" text-rendering="geometricPrecision"/><path stroke="none" d="m397.664 229.856 67.64-21.973a1.247 1.247 0 1 0-.772-2.373l-67.638 21.974a1.247 1.247 0 1 0 .77 2.372ZM396.894 300.976l67.633 21.976a1.247 1.247 0 1 0 .771-2.372l-67.634-21.976a1.247 1.247 0 1 0-.77 2.372Z" clip-path="url(#a)" text-rendering="geometricPrecision"/><path stroke="none" d="m464.918 206.696 1.186.386 19.142-38.73-7.117-2.312-7.116-2.313-7.281 42.584ZM400.54 314.064l-.352-2.494h-5.818l-.352 2.494h6.522Zm2.111 14.966-.352-2.494h-10.04l-.352 2.494h10.744Zm2.111 14.966-.352-2.494h-14.262l-.352 2.494h14.966ZM397.28 228.67h1.246l6.236-71.118h-14.966l6.236 71.118ZM277.359 314.063l-.352-2.494h-5.818l-.352 2.494h6.522Zm2.11 14.966-.351-2.494h-10.04l-.352 2.494h10.744Zm2.112 14.966-.352-2.494h-14.262l-.352 2.494h14.966ZM335.69 335.35h1.246l6.236-44.206h-14.966l6.236 44.206ZM96.416 411.278a1.247 1.247 0 1 0-1.248-2.16l-42.4 24.48a1.247 1.247 0 1 0 1.246 2.16ZM89.95 400.08a1.247 1.247 0 1 0-1.247-2.16l-42.4 24.48a1.247 1.247 0 1 0 1.246 2.16ZM547.864 104.58l61.59 35.56a1.247 1.247 0 1 0 1.247-2.16l-61.59-35.56a1.247 1.247 0 1 0-1.247 2.16Z" clip-path="url(#a)" text-rendering="geometricPrecision"/><path stroke="none" d="M540.775 107.233a1.247 1.247 0 1 0 2.494 0v-46.88a1.247 1.247 0 1 0-2.494 0Zm12.93 0a1.247 1.247 0 1 0 2.495 0v-46.88a1.247 1.247 0 1 0-2.495 0Z" clip-path="url(#a)" text-rendering="geometricPrecision"/><path stroke="none" d="m509.205 127.62 39.906-23.04a1.247 1.247 0 1 0-1.247-2.16l-39.906 23.04a1.247 1.247 0 1 0 1.247 2.16ZM212.507 335.346h1.247l6.236-71.119h-14.966l6.236 71.119ZM610.701 140.14l61.59-35.56a1.247 1.247 0 1 0-1.247-2.16l-61.59 35.56a1.247 1.247 0 1 0 1.247 2.16Z" clip-path="url(#a)" text-rendering="geometricPrecision"/><path stroke="none" d="m671.044 104.58 61.59 35.56a1.247 1.247 0 1 0 1.248-2.16l-61.59-35.56a1.247 1.247 0 1 0-1.248 2.16Z" clip-path="url(#a)" text-rendering="geometricPrecision"/><path stroke="none" d="m733.882 140.14 61.59-35.56a1.247 1.247 0 1 0-1.247-2.16l-61.59 35.56a1.247 1.247 0 1 0 1.247 2.16Z" clip-path="url(#a)" text-rendering="geometricPrecision"/><path stroke="none" d="m794.225 104.58 61.59 35.56a1.247 1.247 0 1 0 1.248-2.16l-61.59-35.56a1.247 1.247 0 1 0-1.248 2.16Z" clip-path="url(#a)" text-rendering="geometricPrecision"/><path stroke="none" d="m857.063 140.14 61.59-35.56a1.247 1.247 0 1 0-1.247-2.16l-61.59 35.56a1.247 1.247 0 1 0 1.247 2.16Z" clip-path="url(#a)" text-rendering="geometricPrecision"/><text xml:space="preserve" y="48" stroke="none" clip-path="url(#b)" font-family="'Arial'" font-size="49" text-rendering="geometricPrecision" transform="translate(468.131 110.06)">O</text><text xml:space="preserve" y="48" stroke="none" clip-path="url(#c)" font-family="'Arial'" font-size="49" text-rendering="geometricPrecision" transform="translate(380.021 341.909)">H</text><text xml:space="preserve" y="48" stroke="none" clip-path="url(#d)" font-family="'Arial'" font-size="49" text-rendering="geometricPrecision" transform="translate(256.84 341.908)">H</text><text xml:space="preserve" y="48" stroke="none" clip-path="url(#e)" font-family="'Arial'" font-size="49" text-rendering="geometricPrecision" transform="translate(318.431 235.232)">H</text><text xml:space="preserve" y="48" stroke="none" clip-path="url(#f)" font-family="'Arial'" font-size="49" text-rendering="geometricPrecision" transform="translate(8.97 413.024)">O</text><text xml:space="preserve" y="48" stroke="none" clip-path="url(#g)" font-family="'Arial'" font-size="49" text-rendering="geometricPrecision" transform="translate(529.721 3.382)">O</text></svg>
