<svg xmlns="http://www.w3.org/2000/svg" xmlns:xlink="http://www.w3.org/1999/xlink" viewBox="0 0 550 405"><path id="a" d="M20.563 333.54c0-5.347 1.435-9.533 4.306-12.558 2.871-3.025 6.578-4.537 11.119-4.537 2.973 0 5.654.71 8.042 2.131 2.387 1.421 4.207 3.402 5.46 5.944 1.252 2.541 1.878 5.423 1.878 8.646 0 3.267-.659 6.189-1.977 8.767-1.318 2.578-3.186 4.53-5.603 5.856-2.417 1.325-5.025 1.988-7.822 1.988-3.033 0-5.743-.732-8.13-2.197-2.388-1.465-4.197-3.464-5.428-5.998a18.179 18.179 0 0 1-1.845-8.042zm4.394.065c0 3.882 1.044 6.94 3.131 9.174 2.088 2.234 4.706 3.35 7.856 3.35 3.208 0 5.848-1.127 7.92-3.383 2.073-2.256 3.11-5.456 3.11-9.602 0-2.622-.443-4.91-1.33-6.866-.886-1.956-2.182-3.472-3.889-4.549-1.706-1.076-3.621-1.615-5.745-1.615-3.018 0-5.614 1.037-7.79 3.11-2.175 2.072-3.263 5.533-3.263 10.381z"/><use xlink:href="#a" transform="translate(447.793 -295.767)"/><path id="b" d="M504.169 53.46V21.248h4.262v13.227h16.744V21.248h4.262V53.46h-4.262V38.276H508.43V53.46z"/><path fill="none" stroke="#000" stroke-width="3" d="m93.54 293.137-42.6 24.6m47.1-16.8-42.6 24.6m340.5-132.6 66 21.3 40.8-55.8-40.8-56.1-66 21.3m0 0v69.3m0-69.3-60-34.5-60 34.5v69.3m120 0-60 34.8m0 0-60-34.8m60 34.8v69.3l-60 34.5-60-34.5m0 0v-69.3m60-34.8-60 34.8m0 0-60-34.8-60 34.8v69.3l60 34.5 60-34.5"/><use xlink:href="#b" transform="translate(-120.829 226.767)"/><use xlink:href="#b" transform="translate(-180.829 120.667)"/><use xlink:href="#b" transform="translate(-240.829 226.767)"/><use xlink:href="#b" transform="translate(-300.862 330.863)"/><path d="m469.917 54.887 12.742 4.098-19.545 43.686-2.97-.96zm-252.1 252.565h-3.664l.348-2.965h2.965zm.958 8.284h-5.583l.347-2.965h4.889zm.961 8.196h-7.591l.347-2.964h6.897zm.962 8.284h-9.515l.353-2.965h8.81zm.956 8.284h-11.427l.347-2.965h10.733zm.962 8.283h-13.35l.346-2.964h12.653zm166.798-294.23h13.353l-5.187 69.349h-2.98zM329.22 178.767h13.441l-5.219 48.252h-3.012zm-119.956-20.404h13.353l-5.187 69.349h-2.98zm188.586 44.993h-3.663l.347-2.964h2.966l.35 2.964zm.958 8.284h-5.583l.348-2.965h4.888zm.962 8.197h-7.592l.348-2.965h6.897zm.962 8.283h-9.515l.352-2.964h8.81zm.956 8.284H390.26l.348-2.965h10.733zm.962 8.284h-13.351l.347-2.965h12.653zm-124.8-41.332h-3.663l.347-2.964h2.966l.35 2.964zm.958 8.284h-5.583l.348-2.965h4.888zm.962 8.197h-7.592l.348-2.965h6.897zm.962 8.283h-9.515l.352-2.964h8.81zm.956 8.284H270.26l.348-2.965h10.733zm.962 8.284h-13.351l.347-2.965h12.653z"/></svg>
