<svg xmlns="http://www.w3.org/2000/svg" stroke="#000" stroke-linecap="square" stroke-miterlimit="10" color-interpolation="auto" font-family="'Dialog'" font-size="12" viewBox="0 0 1170 465"><defs><clipPath id="a" clipPathUnits="userSpaceOnUse"><path d="M-464.47-104.838h1170v465h-1170v-465Z"/></clipPath><clipPath id="b" clipPathUnits="userSpaceOnUse"><path d="M-376.15-337.21h1170v465h-1170v-465Z"/></clipPath><clipPath id="c" clipPathUnits="userSpaceOnUse"><path d="M-314.422-230.293h1170v465h-1170v-465Z"/></clipPath><clipPath id="d" clipPathUnits="userSpaceOnUse"><path d="M-252.692-337.21h1170v465h-1170v-465Z"/></clipPath><clipPath id="e" clipPathUnits="userSpaceOnUse"><path d="M-4.275-408.486h1170v465h-1170v-465Z"/></clipPath><clipPath id="f" clipPathUnits="userSpaceOnUse"><path d="M-526.2 2.08h1170v465h-1170v-465Z"/></clipPath><clipPath id="g" clipPathUnits="userSpaceOnUse"><path d="M550.622 4.532c6.265 0 11.343 5.078 11.343 11.342V38.56c0 6.264-5.078 11.343-11.343 11.343h-10.846c-6.264 0-11.342-5.079-11.342-11.343V15.874c0-6.264 5.078-11.342 11.342-11.342Zm-61.73 106.918c6.265 0 11.344 5.078 11.344 11.342v22.686c0 6.264-5.079 11.343-11.343 11.343h-10.846c-6.264 0-11.343-5.079-11.343-11.343v-22.686c0-6.264 5.079-11.342 11.343-11.342ZM334.719 237.369c6.054 0 10.962 4.908 10.962 10.962v21.924c0 6.054-4.908 10.962-10.962 10.962h-5.592c-6.054 0-10.962-4.908-10.962-10.962V248.33c0-6.054 4.908-10.962 10.962-10.962Zm-61.73 106.916c6.054 0 10.961 4.908 10.961 10.962v21.924c0 6.054-4.907 10.962-10.961 10.962h-5.592c-6.054 0-10.962-4.908-10.962-10.962v-21.924c0-6.054 4.908-10.962 10.962-10.962Zm123.458.001c6.054 0 10.962 4.908 10.962 10.962v21.924c0 6.054-4.908 10.962-10.962 10.962h-5.591c-6.055 0-10.962-4.908-10.962-10.962v-21.924c0-6.054 4.907-10.962 10.962-10.962ZM28.698 415.097c6.264 0 11.342 5.079 11.342 11.343v22.686c0 6.264-5.078 11.342-11.342 11.342H17.852c-6.264 0-11.343-5.078-11.343-11.342V426.44c0-6.264 5.079-11.343 11.343-11.343ZM0 0v465h1170V0Z"/></clipPath></defs><text xml:space="preserve" y="48" stroke="none" clip-path="url(#a)" font-family="'Arial'" font-size="49" shape-rendering="geometricPrecision" text-rendering="optimizeLegibility" transform="translate(464.47 104.838)">O </text><text xml:space="preserve" y="48" stroke="none" clip-path="url(#b)" font-family="'Arial'" font-size="49" shape-rendering="geometricPrecision" text-rendering="optimizeLegibility" transform="translate(376.15 337.21)">H </text><text xml:space="preserve" y="48" stroke="none" clip-path="url(#c)" font-family="'Arial'" font-size="49" shape-rendering="geometricPrecision" text-rendering="optimizeLegibility" transform="translate(314.422 230.293)">H </text><text xml:space="preserve" y="48" stroke="none" clip-path="url(#d)" font-family="'Arial'" font-size="49" shape-rendering="geometricPrecision" text-rendering="optimizeLegibility" transform="translate(252.692 337.21)">H </text><text xml:space="preserve" y="48" stroke="none" clip-path="url(#e)" font-family="'Arial'" font-size="49" shape-rendering="geometricPrecision" text-rendering="optimizeLegibility" transform="translate(4.275 408.486)">O </text><text xml:space="preserve" y="48" stroke="none" clip-path="url(#f)" font-family="'Arial'" font-size="49" shape-rendering="geometricPrecision" text-rendering="optimizeLegibility" transform="translate(526.2 -2.08)">O </text><path stroke="none" d="m145.983 293.628-61.729 35.64a1.5 1.5 0 1 0 1.5 2.598l61.729-35.64a1.5 1.5 0 1 0-1.5-2.598Z" clip-path="url(#g)" font-family="'Arial'" font-size="49" shape-rendering="geometricPrecision" text-rendering="optimizeLegibility"/><path stroke="none" d="m209.212 329.268-61.73-35.64a1.5 1.5 0 1 0-1.5 2.598l61.73 35.64a1.5 1.5 0 1 0 1.5-2.598Zm-125.708 1.299v71.28a1.5 1.5 0 1 0 3 0v-71.28a1.5 1.5 0 1 0-3 0Z" clip-path="url(#g)" font-family="'Arial'" font-size="49" shape-rendering="geometricPrecision" text-rendering="optimizeLegibility"/><path stroke="none" d="m84.254 403.146 61.729 35.64a1.5 1.5 0 1 0 1.5-2.598l-61.729-35.64a1.5 1.5 0 1 0-1.5 2.598Z" clip-path="url(#g)" font-family="'Arial'" font-size="49" shape-rendering="geometricPrecision" text-rendering="optimizeLegibility"/><path stroke="none" d="M147.282 420.473a1.5 1.5 0 1 0 1.5 2.598l46.17-26.657a1.5 1.5 0 1 0-1.5-2.598Zm-1.3 15.715a1.5 1.5 0 1 0 1.5 2.598l61.73-35.64a1.5 1.5 0 1 0-1.5-2.598Z" clip-path="url(#g)" font-family="'Arial'" font-size="49" shape-rendering="geometricPrecision" text-rendering="optimizeLegibility"/><path stroke="none" d="M206.962 330.567v71.28a1.5 1.5 0 1 0 3 0v-71.28a1.5 1.5 0 1 0-3 0Zm63.98 108.22 61.73-35.638a1.5 1.5 0 1 0-1.5-2.598l-61.73 35.638a1.5 1.5 0 1 0 1.5 2.598Z" clip-path="url(#g)" font-family="'Arial'" font-size="49" shape-rendering="geometricPrecision" text-rendering="optimizeLegibility"/><path stroke="none" d="M330.422 330.571v71.28a1.5 1.5 0 1 0 3 0v-71.28a1.5 1.5 0 1 0-3 0Z" clip-path="url(#g)" font-family="'Arial'" font-size="49" shape-rendering="geometricPrecision" text-rendering="optimizeLegibility"/><path stroke="none" d="m332.672 329.272-61.73-35.64a1.5 1.5 0 1 0-1.5 2.598l61.73 35.64a1.5 1.5 0 1 0 1.5-2.598Zm-124.96 73.874 61.73 35.64a1.5 1.5 0 1 0 1.5-2.597l-61.73-35.641a1.5 1.5 0 1 0-1.5 2.598Z" clip-path="url(#g)" font-family="'Arial'" font-size="49" shape-rendering="geometricPrecision" text-rendering="optimizeLegibility"/><path stroke="none" d="m269.442 293.631-61.73 35.637a1.5 1.5 0 1 0 1.5 2.598l61.73-35.636a1.5 1.5 0 1 0-1.5-2.599Zm1.501-68.681 61.729-35.64a1.5 1.5 0 1 0-1.5-2.598l-61.729 35.64a1.5 1.5 0 1 0 1.5 2.598Z" clip-path="url(#g)" font-family="'Arial'" font-size="49" shape-rendering="geometricPrecision" text-rendering="optimizeLegibility"/><path stroke="none" d="m394.4 222.352-61.728-35.64a1.5 1.5 0 1 0-1.5 2.598l61.728 35.64a1.5 1.5 0 1 0 1.5-2.598Z" clip-path="url(#g)" font-family="'Arial'" font-size="49" shape-rendering="geometricPrecision" text-rendering="optimizeLegibility"/><path stroke="none" d="M392.15 223.651v71.28a1.5 1.5 0 1 0 3 0v-71.28a1.5 1.5 0 1 0-3 0Z" clip-path="url(#g)" font-family="'Arial'" font-size="49" shape-rendering="geometricPrecision" text-rendering="optimizeLegibility"/><path stroke="none" d="m392.9 293.632-61.728 35.64a1.5 1.5 0 1 0 1.5 2.598l61.728-35.64a1.5 1.5 0 1 0-1.5-2.598Zm-121.208 1.298.001-71.279a1.5 1.5 0 1 0-3 0l-.001 71.28a1.5 1.5 0 1 0 3 0Zm190.958 22.908 41.898-57.665a1.5 1.5 0 1 0-2.427-1.763l-41.898 57.665a1.5 1.5 0 1 0 2.427 1.763Z" clip-path="url(#g)" font-family="'Arial'" font-size="49" shape-rendering="geometricPrecision" text-rendering="optimizeLegibility"/><path stroke="none" d="m460.228 202.51 41.893 57.663a1.5 1.5 0 1 0 2.427-1.763l-41.893-57.664a1.5 1.5 0 1 0-2.427 1.763Z" clip-path="url(#g)" font-family="'Arial'" font-size="49" shape-rendering="geometricPrecision" text-rendering="optimizeLegibility"/><path stroke="none" d="m460.978 200.201-67.791 22.023a1.5 1.5 0 1 0 .927 2.854l67.79-22.024a1.5 1.5 0 1 0-.926-2.853Zm-67.791 96.157 67.786 22.025a1.5 1.5 0 1 0 .927-2.853l-67.786-22.025a1.5 1.5 0 1 0-.927 2.853Z" clip-path="url(#g)" font-family="'Arial'" font-size="49" shape-rendering="geometricPrecision" text-rendering="optimizeLegibility"/><path stroke="none" d="m461.441 201.628 1.427.463 18.655-37.993-7.133-2.318-7.133-2.318-7.242 41.702Zm-67.791 22.023h1.5l6-71.279h-15l6 71.279Zm3.21 83.636-.415-3h-5.59l-.414 3h6.42Zm2.145 15.5-.415-3h-9.88l-.414 3h10.71Zm2.145 15.5-.415-3h-14.17l-.414 3h15Zm-69.228-7.716h1.5l6-43.355h-15l6 43.355Zm-58.52-23.285-.416-3h-5.589l-.415 3h6.42Zm2.145 15.5-.416-3h-9.879l-.415 3h10.71Zm2.145 15.5-.416-3h-14.169l-.415 3h15ZM92.234 406.887a1.5 1.5 0 1 0-1.5-2.598L49.093 428.33a1.5 1.5 0 1 0 1.5 2.598Zm-6.48-11.223a1.5 1.5 0 1 0-1.5-2.598l-41.64 24.04a1.5 1.5 0 1 0 1.5 2.599Zm122.708-65.097h1.5l6-71.279h-15l6 71.279ZM544.45 99.498l61.728 35.64a1.5 1.5 0 1 0 1.5-2.599L545.95 96.9a1.5 1.5 0 1 0-1.5 2.598Z" clip-path="url(#g)" font-family="'Arial'" font-size="49" shape-rendering="geometricPrecision" text-rendering="optimizeLegibility"/><path stroke="none" d="M537.22 101.94a1.5 1.5 0 1 0 3 0V55.903a1.5 1.5 0 1 0-3 0Zm12.96 0a1.5 1.5 0 1 0 3 0V55.903a1.5 1.5 0 1 0-3 0Zm57.498 33.197 61.73-35.639a1.5 1.5 0 1 0-1.5-2.598l-61.73 35.64a1.5 1.5 0 1 0 1.5 2.597Z" clip-path="url(#g)" font-family="'Arial'" font-size="49" shape-rendering="geometricPrecision" text-rendering="optimizeLegibility"/><path stroke="none" d="m667.908 99.498 61.729 35.64a1.5 1.5 0 1 0 1.5-2.599L669.407 96.9a1.5 1.5 0 1 0-1.5 2.598Z" clip-path="url(#g)" font-family="'Arial'" font-size="49" shape-rendering="geometricPrecision" text-rendering="optimizeLegibility"/><path stroke="none" d="m731.137 135.137 61.729-35.639a1.5 1.5 0 1 0-1.5-2.598l-61.73 35.64a1.5 1.5 0 1 0 1.5 2.597Z" clip-path="url(#g)" font-family="'Arial'" font-size="49" shape-rendering="geometricPrecision" text-rendering="optimizeLegibility"/><path stroke="none" d="m791.366 99.498 61.729 35.64a1.5 1.5 0 1 0 1.5-2.599L792.865 96.9a1.5 1.5 0 1 0-1.5 2.598Z" clip-path="url(#g)" font-family="'Arial'" font-size="49" shape-rendering="geometricPrecision" text-rendering="optimizeLegibility"/><path stroke="none" d="m854.595 135.137 61.73-35.639a1.5 1.5 0 1 0-1.5-2.598l-61.73 35.64a1.5 1.5 0 1 0 1.5 2.597Z" clip-path="url(#g)" font-family="'Arial'" font-size="49" shape-rendering="geometricPrecision" text-rendering="optimizeLegibility"/><path stroke="none" d="m914.824 99.498 61.73 35.64a1.5 1.5 0 1 0 1.5-2.599L916.323 96.9a1.5 1.5 0 1 0-1.5 2.598Z" clip-path="url(#g)" font-family="'Arial'" font-size="49" shape-rendering="geometricPrecision" text-rendering="optimizeLegibility"/><path stroke="none" d="m978.053 135.137 61.73-35.639a1.5 1.5 0 1 0-1.5-2.598l-61.73 35.64a1.5 1.5 0 1 0 1.5 2.597Z" clip-path="url(#g)" font-family="'Arial'" font-size="49" shape-rendering="geometricPrecision" text-rendering="optimizeLegibility"/><path stroke="none" d="m1038.282 99.498 61.73 35.64a1.5 1.5 0 1 0 1.5-2.599l-61.73-35.639a1.5 1.5 0 1 0-1.5 2.598Z" clip-path="url(#g)" font-family="'Arial'" font-size="49" shape-rendering="geometricPrecision" text-rendering="optimizeLegibility"/><path stroke="none" d="m1101.512 135.137 61.729-35.639a1.5 1.5 0 1 0-1.5-2.598l-61.73 35.64a1.5 1.5 0 1 0 1.5 2.597ZM506.81 122.095l39.14-22.597a1.5 1.5 0 1 0-1.5-2.598l-39.14 22.597a1.5 1.5 0 1 0 1.5 2.598Z" clip-path="url(#g)" font-family="'Arial'" font-size="49" shape-rendering="geometricPrecision" text-rendering="optimizeLegibility"/></svg>
