<svg xmlns="http://www.w3.org/2000/svg" viewBox="0 0 289.102 186.781"><path d="M258.438 4.656c-2.301 0-4.171.78-5.625 2.313-1.457 1.532-2.188 3.664-2.188 6.375 0 1.433.312 2.779.938 4.062.625 1.284 1.54 2.29 2.75 3.031s2.588 1.125 4.125 1.125a8.005 8.005 0 0 0 3.937-1c1.226-.671 2.176-1.662 2.844-2.968s1-2.782 1-4.438c0-1.632-.303-3.118-.938-4.406s-1.57-2.279-2.781-3c-1.21-.72-2.554-1.094-4.063-1.094zm10.656.281v16.344h2.156v-7.687h8.469v7.687h2.156V4.937h-2.156v6.72h-8.469v-6.72zm-10.656 1.594c1.077 0 2.073.267 2.937.813.865.545 1.52 1.321 1.969 2.312s.656 2.14.656 3.469c0 2.1-.513 3.732-1.563 4.875-1.052 1.143-2.403 1.719-4.03 1.719-1.596 0-2.912-.588-3.97-1.719-1.059-1.132-1.593-2.659-1.593-4.625 0-2.456.551-4.23 1.656-5.281 1.102-1.05 2.409-1.563 3.938-1.563zM251.405 22l-5.312 25.5-34.281 11.125 2.75-36.594h-7.282L210 58.281l-31.719-18.344-33.437 19.344V97l-30.938 17.844 2.719-36.219h-7.281l2.719 36.219-31.75-18.313-33.438 19.313v34.437L21.812 164.72l.813 1.437 24.25-14.031v2.344l2.031 1.187-24.25 13.969.813 1.406 25-14.469 29.843 17.25 32.657-18.875 32.656 18.875 33.438-19.343V116.75L211 98.312l36.094 11.75 22.844-31.437-22.22-30.594 10.626-23.812zm-73.125 19.844 31.813 18.375V97l-30.875 17.812 2.719-25.093h-7.313l2.688 25.093L146.438 97V60.219zm68.188 7.218 21.469 29.563-21.47 29.531-34.75-11.312V60.312zM171.906 71.25v16.344h2.156v-7.688h8.438v7.688h2.188V71.25H182.5v6.719h-8.438V71.25zM80.312 98.375l31.844 18.375v36.781l-31.844 18.375L48.5 153.531V116.75zm65.313 0 31.844 18.375v36.781l-31.844 18.375-31.875-18.375V116.75zm-.781 3.125-.219 1.625h2l-.188-1.625zm65.25 0-.188 1.625h2l-.187-1.625zm-65.781 4.531-.188 1.594h3.031l-.187-1.594zm65.25 0-.188 1.594h3.031l-.187-1.594zm-65.813 4.438-.219 1.625h4.156l-.187-1.625zm65.313 0-.22 1.625H213l-.188-1.625zM143.219 115l-.188 1.625h5.156L148 115zm65.312 0-.187 1.625h5.156l-.188-1.625zm-65.844 4.5-.187 1.625h6.219l-.188-1.625zm65.313 0-.188 1.625h6.22l-.188-1.625zm-65.844 4.531-.187 1.594h7.281l-.188-1.594zm65.313 0-.188 1.594h7.281l-.187-1.594zm-68.219 3.75v16.344h2.188v-7.688h8.437v7.688h2.156v-16.344h-2.156v6.719h-8.438v-6.719zm65.313 0v16.344h2.187v-7.688h8.438v7.688h2.156v-16.344h-2.156v6.719h-8.438v-6.719zm-97.625 22.281-27.032 15.563.813 1.375 27-15.563zM15.03 165.22c-2.3 0-4.17.779-5.625 2.312s-2.187 3.634-2.187 6.344c0 1.434.313 2.81.937 4.094s1.54 2.289 2.75 3.031 2.588 1.125 4.125 1.125c1.419 0 2.743-.36 3.969-1.031s2.176-1.663 2.844-2.969 1-2.782 1-4.438c0-1.632-.302-3.086-.938-4.375s-1.57-2.278-2.781-3c-1.21-.72-2.586-1.093-4.094-1.093zm.031 1.843c1.077 0 2.041.299 2.907.844s1.52 1.29 1.968 2.281.688 2.172.688 3.5c0 2.1-.543 3.701-1.594 4.844-1.051 1.143-2.373 1.719-4 1.719-1.596 0-2.941-.555-4-1.688s-1.562-2.69-1.562-4.656c0-2.456.522-4.2 1.625-5.25s2.439-1.594 3.969-1.594z"/></svg>
